<svg xmlns="http://www.w3.org/2000/svg" xmlns:xlink="http://www.w3.org/1999/xlink" version="1.1" x="0px" y="0px" viewBox="0 0 100 125" enable-background="new 0 0 100 100" xml:space="preserve"><path d="M15,40c0,21,21.6,42.7,33.2,54.3c0.5,0.5,1.1,0.7,1.8,0.7s1.3-0.2,1.8-0.7C63.4,82.7,85,61,85,40C85,20.7,69.3,5,50,5  S15,20.7,15,40z M80,40c0,18-18.6,37.5-30,49C38.6,77.5,20,58,20,40c0-16.5,13.5-30,30-30S80,23.5,80,40z"/><path d="M26.3,40c0,13.1,10.7,23.8,23.8,23.8S73.8,53.1,73.8,40S63.1,16.3,50,16.3S26.3,26.9,26.3,40z M71.3,40  c0,11.7-9.5,21.3-21.3,21.3S28.8,51.7,28.8,40S38.3,18.8,50,18.8S71.3,28.3,71.3,40z"/><path d="M45.2,27.5v7.7h-7.7c-0.7,0-1.3,0.6-1.3,1.3v7.1c0,0.7,0.6,1.3,1.3,1.3h7.7v7.7c0,0.7,0.6,1.3,1.3,1.3h7.1  c0.7,0,1.3-0.6,1.3-1.3v-7.7h7.7c0.7,0,1.3-0.6,1.3-1.3v-7.1c0-0.7-0.6-1.3-1.3-1.3h-7.7v-7.7c0-0.7-0.6-1.3-1.3-1.3h-7.1  C45.7,26.3,45.2,26.8,45.2,27.5z M47.7,36.4v-7.7h4.6v7.7c0,0.7,0.6,1.3,1.3,1.3h7.7v4.6h-7.7c-0.7,0-1.3,0.6-1.3,1.3v7.7h-4.6v-7.7  c0-0.7-0.6-1.3-1.3-1.3h-7.7v-4.6h7.7C47.1,37.7,47.7,37.1,47.7,36.4z"/><text x="0" y="115" fill="#000000" font-size="5px" font-weight="bold" font-family="'Helvetica Neue', Helvetica, Arial-Unicode, Arial, Sans-serif">Created by Arthur Shlain</text><text x="0" y="120" fill="#000000" font-size="5px" font-weight="bold" font-family="'Helvetica Neue', Helvetica, Arial-Unicode, Arial, Sans-serif">from the Noun Project</text></svg>