<?xml version="1.0" encoding="utf-8"?>
<!-- Generator: Adobe Illustrator 15.0.0, SVG Export Plug-In . SVG Version: 6.00 Build 0)  -->
<!DOCTYPE svg PUBLIC "-//W3C//DTD SVG 1.1//EN" "http://www.w3.org/Graphics/SVG/1.1/DTD/svg11.dtd">
<svg version="1.1" xmlns="http://www.w3.org/2000/svg" xmlns:xlink="http://www.w3.org/1999/xlink" x="0px" y="0px" width="260.5px"
	 height="314.334px" viewBox="0 0 260.5 314.334" enable-background="new 0 0 260.5 314.334" xml:space="preserve">
<g id="Layer_1">
	<path fill="#F6A74C" d="M-580.658,176.455c-4.787,4.493-22.012,22-22.012,22l22.012-6.274l-22.012,36.382l22.073-11.31
		l-19.899,37.821l22.044-7.085"/>
	<path fill="#F6A74C" d="M-357.989,176.453c4.48,4.495,20.619,22,20.619,22l-20.619-6.272l20.619,36.38l-20.676-11.31l18.639,37.823
		l-20.651-7.087"/>
	<path fill="#FABD4F" d="M-357.732,236.592c0,12.991-9.561,23.524-21.352,23.524H-560.44c-11.795,0-21.353-10.533-21.353-23.524
		V108.173c0-12.993,9.557-23.524,21.353-23.524h181.356c11.791,0,21.352,10.531,21.352,23.524V236.592z"/>
	<path fill="#FABD4F" d="M-577.844,124.353c1.94-161.858,41.03-36.334,41.03-36.334"/>
	<path fill="#FABD4F" d="M-361.601,123.529c-2.782-161.84-38.852-36.332-38.852-36.332"/>
	<path fill="#FABD4F" d="M-576.805,92.492c0,0,1.86-49.819,13.124-50.822s25.765,42.979,25.765,42.979"/>
	<path fill="#F7C2BC" d="M-570.742,88.648l25.664-4.66c0,0-12.258-32.705-17.797-31.875
		C-568.416,52.943-570.742,88.648-570.742,88.648z"/>
	<path fill="#F7C2BC" d="M-368.987,89.005l-24.042-4.66c0,0,11.481-32.705,16.671-31.875
		C-371.17,53.301-368.987,89.005-368.987,89.005z"/>
	<rect x="-581.646" y="102.8" fill="#1B4F90" width="224.005" height="10.611"/>
	<rect x="-581.793" y="104.273" fill="#2060AF" width="224.005" height="7.665"/>
	<g>
		<g>
			<path fill="#58595C" d="M-521.153,151.276c1.778-5.682,4.936-11.162,8.67-15.804c-1.36,0-2.721,0-4.081,0
				c3.882,4.643,7.258,10.09,9.258,15.804c1.221,3.489,6.798,1.988,5.565-1.534c-2.349-6.713-6.188-12.904-10.742-18.351
				c-0.934-1.117-3.154-1.152-4.081,0c-4.388,5.454-8.058,11.653-10.154,18.351C-527.833,153.304-522.261,154.815-521.153,151.276
				L-521.153,151.276z"/>
		</g>
	</g>
	<g>
		<g>
			<path fill="#58595C" d="M-431.984,151.276c1.778-5.682,4.935-11.162,8.67-15.804c-1.36,0-2.721,0-4.081,0
				c3.882,4.643,7.258,10.09,9.257,15.804c1.221,3.489,6.798,1.988,5.565-1.534c-2.349-6.713-6.188-12.904-10.742-18.351
				c-0.934-1.117-3.154-1.152-4.081,0c-4.388,5.454-8.059,11.653-10.154,18.351C-438.664,153.304-433.092,154.816-431.984,151.276
				L-431.984,151.276z"/>
		</g>
	</g>
	<polygon fill="#F7C2BC" points="-479.791,209.068 -459.497,209.068 -469.646,229.422 	"/>
	<path fill="#EC7D98" d="M-462.041,182.572c0,4.313-3.575,7.813-7.999,7.813s-8.007-3.5-8.007-7.813c0-4.32,3.583-7.822,8.007-7.822
		S-462.041,178.252-462.041,182.572z"/>
	<g>
		<g>
			<path fill="#58595C" d="M-458.821,203.073c-2.661,10.038-7.343,19.712-13.134,28.333c1.481,0,2.961,0,4.442,0
				c-5.738-8.792-10.38-18.592-13.038-28.748c-0.839-3.207-5.801-1.845-4.961,1.367c2.763,10.56,7.592,20.838,13.556,29.978
				c1.092,1.673,3.343,1.636,4.442,0c6.023-8.967,10.885-19.121,13.653-29.563C-453.01,201.23-457.972,199.869-458.821,203.073
				L-458.821,203.073z"/>
			<path fill="#58595C" d="M-459.327,206.731c-3.849,1.3-6.871-1.039-8.063-4.081c-0.74-1.886-3.592-2.801-4.702-0.615
				c-1.704,3.359-4.633,6.212-8.597,4.828c-3.14-1.096-4.478,3.875-1.367,4.961c6.109,2.133,11.667-1.792,14.406-7.192
				c-1.567-0.205-3.134-0.41-4.702-0.615c2.372,6.046,7.898,9.867,14.392,7.674C-454.834,210.636-456.175,205.667-459.327,206.731
				L-459.327,206.731z"/>
		</g>
	</g>
	<line fill="none" x1="-536.814" y1="174.43" x2="-536.814" y2="173.208"/>
	<g>
		<line fill="#FFFFFF" x1="-502.157" y1="166.582" x2="-483.075" y2="176.187"/>
		<g>
			<path fill="#FFFFFF" d="M-502.812,167.703c6.36,3.202,12.721,6.404,19.082,9.605c1.492,0.751,2.807-1.489,1.311-2.242
				c-6.36-3.202-12.721-6.404-19.082-9.605C-502.993,164.709-504.308,166.95-502.812,167.703L-502.812,167.703z"/>
		</g>
	</g>
	<g>
		<circle fill="#C7C9CB" cx="-470.155" cy="75.774" r="34.496"/>
		<path fill="#FFFFFF" d="M-457.1,75.774c0,6.773-5.833,12.264-13.031,12.264c-7.194,0-13.031-5.491-13.031-12.264
			c0-6.775,5.837-12.266,13.031-12.266C-462.933,63.508-457.1,69-457.1,75.774z"/>
	</g>
	<g>
		<line fill="#FFFFFF" x1="-456.715" y1="188.612" x2="-437.633" y2="198.217"/>
		<g>
			<path fill="#FFFFFF" d="M-457.371,189.733c6.36,3.202,12.721,6.403,19.082,9.605c1.492,0.751,2.807-1.489,1.311-2.242
				c-6.36-3.202-12.721-6.403-19.082-9.605C-457.552,186.74-458.867,188.98-457.371,189.733L-457.371,189.733z"/>
		</g>
	</g>
	<g>
		<line fill="#FFFFFF" x1="-456.715" y1="176.187" x2="-437.633" y2="166.582"/>
		<g>
			<path fill="#FFFFFF" d="M-456.06,177.308c6.361-3.202,12.722-6.403,19.082-9.605c1.496-0.753,0.181-2.993-1.311-2.242
				c-6.361,3.202-12.722,6.403-19.082,9.605C-458.867,175.819-457.552,178.059-456.06,177.308L-456.06,177.308z"/>
		</g>
	</g>
	<g>
		<line fill="#FFFFFF" x1="-502.157" y1="198.211" x2="-483.075" y2="188.606"/>
		<g>
			<path fill="#FFFFFF" d="M-501.501,199.333c6.361-3.202,12.721-6.403,19.082-9.605c1.496-0.753,0.181-2.993-1.311-2.242
				c-6.361,3.202-12.721,6.403-19.082,9.605C-504.308,197.843-502.993,200.083-501.501,199.333L-501.501,199.333z"/>
		</g>
	</g>
	<path fill="#F6A74C" d="M-183.767,103.296c-2.022,1.898-9.302,9.297-9.302,9.297l9.302-2.651l-9.302,15.375l9.327-4.779
		l-8.408,15.983l9.316-2.994"/>
	<path fill="#F6A74C" d="M-89.667,103.295c1.893,1.899,8.713,9.297,8.713,9.297l-8.713-2.651l8.713,15.374l-8.737-4.779
		l7.876,15.983l-8.727-2.995"/>
	<path fill="#FABD4F" d="M-89.559,128.709c0,5.49-4.041,9.941-9.023,9.941h-76.641c-4.984,0-9.023-4.451-9.023-9.941V74.44
		c0-5.491,4.039-9.941,9.023-9.941h76.641c4.982,0,9.023,4.45,9.023,9.941V128.709z"/>
	<path fill="#FABD4F" d="M-182.577,81.278c0.82-68.401,17.339-15.355,17.339-15.355"/>
	<path fill="#FABD4F" d="M-91.193,80.93c-1.176-68.393-16.419-15.354-16.419-15.354"/>
	<path fill="#F7C2BC" d="M-179.575,66.189l10.845-1.97c0,0-5.181-13.82-7.521-13.47S-179.575,66.189-179.575,66.189z"/>
	<path fill="#F7C2BC" d="M-94.315,66.34l-10.16-1.969c0,0,4.852-13.821,7.046-13.47C-95.238,51.252-94.315,66.34-94.315,66.34z"/>
	<rect x="-184.246" y="71.852" fill="#2060AF" width="94.663" height="3.239"/>
	<g>
		<g>
			<path fill="#58595C" d="M-158.62,92.656c0.752-2.401,2.086-4.717,3.664-6.679c-0.575,0-1.149,0-1.725,0
				c1.641,1.962,3.067,4.264,3.912,6.679c0.516,1.474,2.872,0.84,2.352-0.648c-0.992-2.837-2.614-5.453-4.539-7.755
				c-0.395-0.472-1.333-0.487-1.725,0c-1.854,2.305-3.405,4.925-4.291,7.755C-161.443,93.513-159.088,94.151-158.62,92.656
				L-158.62,92.656z"/>
		</g>
	</g>
	<g>
		<g>
			<path fill="#58595C" d="M-120.938,92.656c0.752-2.401,2.086-4.717,3.664-6.679c-0.575,0-1.149,0-1.725,0
				c1.641,1.962,3.068,4.264,3.913,6.679c0.516,1.474,2.872,0.84,2.352-0.648c-0.992-2.837-2.615-5.454-4.54-7.755
				c-0.395-0.472-1.333-0.487-1.725,0c-1.854,2.305-3.405,4.925-4.291,7.755C-123.762,93.513-121.406,94.151-120.938,92.656
				L-120.938,92.656z"/>
		</g>
	</g>
	<polygon fill="#F7C2BC" points="-141.141,117.078 -132.564,117.078 -136.854,125.679 	"/>
	<path fill="#EC7D98" d="M-133.64,105.881c0,1.822-1.51,3.302-3.38,3.302s-3.384-1.479-3.384-3.302c0-1.826,1.514-3.306,3.384-3.306
		S-133.64,104.055-133.64,105.881z"/>
	<g>
		<g>
			<path fill="#58595C" d="M-132.278,114.544c-1.136,4.244-3.103,8.325-5.551,11.974c0.626,0,1.251,0,1.877,0
				c-2.425-3.721-4.375-7.855-5.51-12.149c-0.357-1.354-2.454-0.779-2.096,0.578c1.18,4.465,3.207,8.8,5.729,12.669
				c0.461,0.707,1.413,0.691,1.877,0c2.547-3.796,4.589-8.078,5.77-12.493C-129.819,113.767-131.917,113.191-132.278,114.544
				L-132.278,114.544z"/>
			<path fill="#58595C" d="M-132.493,116.09c-1.626,0.549-2.903-0.438-3.407-1.724c-0.312-0.797-1.518-1.183-1.986-0.26
				c-0.72,1.419-1.958,2.625-3.633,2.04c-1.327-0.463-1.893,1.637-0.578,2.097c2.582,0.901,4.93-0.757,6.088-3.039
				c-0.662-0.087-1.324-0.173-1.986-0.26c1.001,2.555,3.337,4.169,6.081,3.243C-130.595,117.74-131.161,115.64-132.493,116.09
				L-132.493,116.09z"/>
		</g>
	</g>
	<g>
		<line fill="#26497B" x1="-177.591" y1="253.91" x2="-73.373" y2="253.91"/>
		<g>
			<path fill="#009C9E" d="M-177.591,260.627c34.739,0,69.479,0,104.218,0c8.663,0,8.663-13.434,0-13.434
				c-34.739,0-69.479,0-104.218,0C-186.254,247.193-186.254,260.627-177.591,260.627L-177.591,260.627z"/>
		</g>
	</g>
	<line fill="none" x1="-165.238" y1="102.44" x2="-165.238" y2="101.924"/>
	<g>
		<line fill="#FFFFFF" x1="-150.592" y1="99.124" x2="-142.528" y2="103.183"/>
		<g>
			<path fill="#FFFFFF" d="M-150.869,99.597c2.688,1.353,5.376,2.706,8.063,4.059c0.631,0.317,1.187-0.629,0.555-0.947
				c-2.688-1.353-5.376-2.706-8.063-4.059C-150.945,98.333-151.501,99.279-150.869,99.597L-150.869,99.597z"/>
		</g>
	</g>
	<g>
		<circle fill="#C7C9CB" cx="-137.341" cy="60.749" r="14.578"/>
		<ellipse fill="#FFFFFF" cx="-137.331" cy="60.749" rx="5.507" ry="5.183"/>
	</g>
	<g>
		<line fill="#FFFFFF" x1="-131.389" y1="108.434" x2="-123.325" y2="112.492"/>
		<g>
			<path fill="#FFFFFF" d="M-131.666,108.907c2.688,1.353,5.376,2.706,8.063,4.059c0.631,0.317,1.187-0.629,0.555-0.947
				c-2.688-1.353-5.376-2.706-8.063-4.059C-131.742,107.643-132.298,108.589-131.666,108.907L-131.666,108.907z"/>
		</g>
	</g>
	<g>
		<line fill="#FFFFFF" x1="-131.389" y1="103.183" x2="-123.325" y2="99.124"/>
		<g>
			<path fill="#FFFFFF" d="M-131.111,103.656c2.688-1.353,5.375-2.706,8.063-4.059c0.632-0.318,0.076-1.265-0.555-0.947
				c-2.688,1.353-5.375,2.706-8.063,4.059C-132.298,103.027-131.742,103.974-131.111,103.656L-131.111,103.656z"/>
		</g>
	</g>
	<g>
		<line fill="#FFFFFF" x1="-150.592" y1="112.49" x2="-142.528" y2="108.43"/>
		<g>
			<path fill="#FFFFFF" d="M-150.314,112.963c2.688-1.353,5.375-2.706,8.063-4.06c0.632-0.318,0.076-1.265-0.555-0.947
				c-2.688,1.353-5.375,2.706-8.063,4.06C-151.501,112.334-150.945,113.281-150.314,112.963L-150.314,112.963z"/>
		</g>
	</g>
	<g>
		<line fill="#007F41" x1="-201.799" y1="251.48" x2="-90.673" y2="251.48"/>
		<g>
			<path fill="#56B033" d="M-201.799,258.463c37.042,0,74.084,0,111.126,0c9.005,0,9.005-13.965,0-13.965
				c-37.042,0-74.084,0-111.126,0C-210.804,244.498-210.804,258.463-201.799,258.463L-201.799,258.463z"/>
		</g>
	</g>
	<path fill="#FABD4F" d="M-154.925,137.717c0,0-9.054,35.843-18.716,50.124c-12.011,17.753-11.819,52.356-3.789,60.737
		c8.029,8.383,77.764,4.953,82.744,0c4.98-4.951,9.88-42.984-4.554-60.737c-11.61-14.28-22.491-50.124-22.491-50.124H-154.925z"/>
	<path opacity="0.25" fill="#7D7F82" d="M-120.149,142.646c-1.011-3.05-1.581-4.929-1.581-4.929h-33.194
		c0,0-0.452,1.792-1.259,4.723C-147.142,145.047-135.054,146.226-120.149,142.646z"/>
	<linearGradient id="SVGID_1_" gradientUnits="userSpaceOnUse" x1="-148.8262" y1="189.7402" x2="-149.9839" y2="256.0646">
		<stop  offset="0.2086" style="stop-color:#FABD4F"/>
		<stop  offset="1" style="stop-color:#F29249"/>
	</linearGradient>
	<path fill="url(#SVGID_1_)" d="M-162.093,189.508c0,0,7.252,40.699,7.497,46.591s1.473,7.611,0,8.84
		c-1.473,1.227-4.419,4.664-2.21,8.838c2.21,4.176,18.906,1.719,19.643,0c0.736-1.717,0.736-5.893,0-7.855
		c-0.736-1.965-10.312-42.826-7.366-44.053"/>
	<linearGradient id="SVGID_2_" gradientUnits="userSpaceOnUse" x1="-124.1553" y1="195.4873" x2="-125.2173" y2="256.3296">
		<stop  offset="0.0982" style="stop-color:#FABD4F"/>
		<stop  offset="1" style="stop-color:#F29249"/>
	</linearGradient>
	<path fill="url(#SVGID_2_)" d="M-133.004,202.809c0,0,0.277,29.14,0.005,30.858c-0.273,1.719-0.597,8.62-0.869,10.584
		c-0.273,1.965-3.583,0.672-2.742,10.018c0.2,2.229,19.582,3.191,19.827,0s-0.64-4.562-1.229-7.367
		c-1.041-4.953-1.194-8.92-0.49-11.539c0.497-1.851,6.613-34.273,5.877-39.675"/>
	<g opacity="0.08">
		<path fill="none" d="M-469.964-38.146v79.345c18.731,0.37,33.803,15.66,33.803,34.48c0,3.068-0.406,6.042-1.158,8.875h37.775
			c4.815-15.678,30.96-95.049,37.007,8.468c1.945,2.57,3.4,5.604,4.213,8.931h0.68v4.511c0.033,0.534,0.057,1.071,0.057,1.614
			v68.539c4.797,4.858,20.361,21.74,20.361,21.74l-20.361-6.193v0.375l20.361,35.928l-20.361-11.139v0.465l18.324,37.188
			l-20.65-7.089l0.021-0.771c-3.523,7.653-10.727,12.901-19.047,12.901h-91.025v143.833h178.201V-38.146H-469.964z"/>
		<polygon points="-337.227,228.467 -357.588,192.539 -357.588,217.328 		"/>
		<path d="M-359.893,247.122l-0.021,0.771l20.65,7.089l-18.324-37.188v18.705C-357.588,240.322-358.422,243.93-359.893,247.122z"/>
		<path d="M-337.227,198.357c0,0-15.564-16.882-20.361-21.74v15.547L-337.227,198.357z"/>
		<path d="M-448.316,101.953h63.888l-15.881-14.851c0,0,0.271-0.938,0.765-2.548h-37.775
			C-439.148,91.438-443.05,97.471-448.316,101.953z"/>
		<path d="M-359.893,247.122c1.471-3.192,2.305-6.8,2.305-10.624v-18.705v-0.465v-24.789v-0.375v-15.547v-68.539
			c0-0.543-0.023-1.08-0.057-1.614v3.154h-4.152c0.143,4.355,0.258,8.953,0.34,13.816l-14.773-13.816h-88.277
			c-1.775,0.319-3.598,0.503-5.457,0.54v64.5c0.022,0,0.045-0.004,0.067-0.004c4.425,0,7.999,3.503,7.999,7.822
			c0,4.314-3.574,7.814-7.999,7.814c-0.022,0-0.045-0.004-0.067-0.004v18.687h10.61l-10.148,20.354l-0.462-0.928v31.623h91.025
			C-370.619,260.023-363.416,254.775-359.893,247.122z"/>
		<path d="M-358.324,101.953c-0.812-3.326-2.268-6.36-4.213-8.931c0.166,2.837,0.316,5.813,0.451,8.931H-358.324z"/>
		<path d="M-361.457,123.435c-0.082-4.863-0.197-9.461-0.34-13.816h-14.434L-361.457,123.435z"/>
		<path d="M-384.428,101.953h22.342c-0.135-3.117-0.285-6.094-0.451-8.931c-6.047-103.517-32.192-24.146-37.007-8.468
			c-0.494,1.609-0.765,2.548-0.765,2.548L-384.428,101.953z M-376.215,52.375c5.189,0.832,7.371,36.535,7.371,36.535l-24.042-4.66
			C-392.886,84.25-381.404,51.546-376.215,52.375z"/>
		<path d="M-368.844,88.91c0,0-2.182-35.703-7.371-36.535c-5.189-0.829-16.671,31.875-16.671,31.875L-368.844,88.91z"/>
		<path d="M-384.428,101.953h-63.888c-4.537,3.861-10.084,6.565-16.191,7.665h88.277h14.434h4.152v-3.154v-4.511h-0.68h-3.762
			H-384.428z"/>
		<polygon points="-459.354,208.974 -469.964,208.974 -469.964,228.4 -469.502,229.328 		"/>
		<path d="M-461.898,182.477c0-4.319-3.574-7.822-7.999-7.822c-0.022,0-0.045,0.004-0.067,0.004v15.629
			c0.022,0,0.045,0.004,0.067,0.004C-465.472,190.291-461.898,186.791-461.898,182.477z"/>
		<path d="M-448.316,101.953c5.266-4.482,9.168-10.516,10.996-17.398c0.752-2.833,1.158-5.807,1.158-8.875
			c0-18.82-15.071-34.11-33.803-34.48v22.246c6.885,0.33,12.361,5.672,12.361,12.234c0,6.561-5.477,11.902-12.361,12.232v22.246
			c1.859-0.037,3.682-0.221,5.457-0.54C-458.4,108.519-452.853,105.814-448.316,101.953z"/>
		<path d="M-457.603,75.68c0-6.562-5.477-11.904-12.361-12.234v24.467C-463.08,87.582-457.603,82.24-457.603,75.68z"/>
	</g>
	<g>
		<line fill="#007F41" x1="-195.543" y1="261.545" x2="-78.692" y2="261.545"/>
		<g>
			<path fill="#155470" d="M-195.543,264.861c38.95,0,77.9,0,116.851,0c4.277,0,4.277-6.633,0-6.633c-38.95,0-77.9,0-116.851,0
				C-199.82,258.229-199.82,264.861-195.543,264.861L-195.543,264.861z"/>
		</g>
	</g>
	<g opacity="0.08">
		<path fill="none" d="M-137.108,24.749v21.549c8.051,0,14.578,6.527,14.578,14.579c0,1.299-0.187,2.552-0.505,3.75h15.979
			c2.029-6.608,13.077-40.155,15.636,3.577c0.823,1.086,1.432,2.371,1.775,3.776h0.295v2.055c0.009,0.177,0.024,0.353,0.024,0.533
			v28.965c2.019,2.043,8.604,9.187,8.604,9.187l-8.604-2.618v0.159l8.604,15.182l-8.604-4.706v0.197l7.743,15.714l-8.727-2.995
			l0.01-0.341c-1.487,3.24-4.529,5.467-8.05,5.467h-23.364c1.794,5.714,11.698,36.272,22.201,49.19
			c14.434,17.753,9.534,55.786,4.554,60.739c-1.67,1.66-10.62,3.148-22.08,4.078c0.024,0.492,0.028,1.012-0.018,1.611
			c-0.245,3.193-19.627,2.229-19.827,0c-0.021-0.227-0.036-0.441-0.052-0.656c-0.058,0.002-0.115,0.002-0.173,0.004v18.004h61.104
			v-247H-137.108z"/>
		<path d="M-90.3,133.312l-0.01,0.341l8.727,2.995l-7.743-15.714v7.904C-89.326,130.449-89.682,131.965-90.3,133.312z"/>
		<path d="M-80.722,112.721c0,0-6.586-7.144-8.604-9.187v6.569L-80.722,112.721z"/>
		<polygon points="-80.722,125.443 -89.326,110.261 -89.326,120.737 		"/>
		<path d="M-89.646,71.98c-0.344-1.405-0.952-2.69-1.775-3.776c0.071,1.204,0.137,2.454,0.193,3.776H-89.646z"/>
		<path d="M-121.976,137.937c0.003,0.012,0.011,0.036,0.015,0.05c0.046,0.147,0.127,0.412,0.247,0.792h23.364
			c3.521,0,6.562-2.227,8.05-5.467c0.618-1.346,0.974-2.863,0.974-4.474v-7.904v-0.197v-10.476v-0.159v-6.569V74.568
			c0-0.18-0.016-0.355-0.024-0.533v1.184h-1.755c0.061,1.842,0.109,3.782,0.145,5.839l-6.244-5.839h-37.36
			c-0.827,0.146-1.674,0.236-2.543,0.236v27.28c0.107-0.01,0.211-0.032,0.321-0.032c1.87,0,3.38,1.48,3.38,3.306
			c0,1.822-1.51,3.302-3.38,3.302c-0.11,0-0.214-0.021-0.321-0.032v7.927h4.776l-4.289,8.601l-0.487-0.978v13.016h15.104
			C-122.004,137.846-121.992,137.883-121.976,137.937z"/>
		<path d="M-127.675,71.98h27.007l-6.712-6.276c0,0,0.115-0.401,0.323-1.077h-15.979C-123.809,67.536-125.448,70.087-127.675,71.98z
			"/>
		<path d="M-100.668,71.98h9.44c-0.057-1.323-0.122-2.572-0.193-3.776c-2.559-43.731-13.606-10.185-15.636-3.577
			c-0.208,0.676-0.323,1.077-0.323,1.077L-100.668,71.98z M-97.197,51.029c2.191,0.352,3.114,15.439,3.114,15.439l-10.16-1.969
			C-104.243,64.499-99.392,50.678-97.197,51.029z"/>
		<path d="M-90.961,81.058c-0.035-2.057-0.084-3.997-0.145-5.839h-6.1L-90.961,81.058z"/>
		<path d="M-94.083,66.468c0,0-0.923-15.088-3.114-15.439c-2.194-0.351-7.046,13.47-7.046,13.47L-94.083,66.468z"/>
		<path d="M-100.668,71.98h-27.007c-1.93,1.641-4.291,2.781-6.891,3.239h37.36h6.1h1.755v-1.184V71.98h-0.295h-1.582H-100.668z"/>
		<polygon points="-132.332,117.207 -137.108,117.207 -137.108,124.83 -136.621,125.808 		"/>
		<path d="M-133.407,106.009c0-1.826-1.51-3.306-3.38-3.306c-0.11,0-0.214,0.021-0.321,0.032v6.544
			c0.107,0.01,0.211,0.032,0.321,0.032C-134.917,109.311-133.407,107.832-133.407,106.009z"/>
		<path d="M-127.675,71.98c2.227-1.894,3.866-4.445,4.64-7.353c0.318-1.199,0.505-2.452,0.505-3.75
			c0-8.052-6.527-14.579-14.578-14.579v9.396c0.003,0,0.007,0,0.01,0c3.042,0,5.507,2.321,5.507,5.184s-2.465,5.183-5.507,5.183
			c-0.003,0-0.007,0-0.01,0v9.396c0.869,0,1.716-0.09,2.543-0.236C-131.966,74.761-129.604,73.622-127.675,71.98z"/>
		<path d="M-131.592,60.877c0-2.863-2.465-5.184-5.507-5.184c-0.003,0-0.007,0-0.01,0V66.06c0.003,0,0.007,0,0.01,0
			C-134.057,66.06-131.592,63.74-131.592,60.877z"/>
		<path d="M-134.142,244.38c0.272-1.965,0.758-8.159,1.031-9.878c0.272-1.719,5.496-32.157,5.496-32.157l20.379-7.121
			c0.736,5.402-11.043,38.417-11.54,40.268c-0.704,2.621-0.551,6.585,0.49,11.541c0.479,2.277,1.142,3.623,1.246,5.754
			c11.46-0.93,20.41-2.418,22.08-4.078c4.98-4.953,9.88-42.985-4.554-60.739c-10.503-12.918-20.407-43.477-22.201-49.19
			c-0.12-0.38-0.201-0.645-0.247-0.792c0.145,0.47,0.681,2.201,1.538,4.788c-6.031,1.448-11.592,2.108-16.686,2.219v102.322
			c0.119,0.662,0.19,1.414,0.215,2.176C-136.367,245.478-134.353,245.896-134.142,244.38z"/>
		<path d="M-137.014,252.153c-0.027,0.207-0.059,0.408-0.095,0.598v0.994c0.058-0.002,0.115-0.002,0.173-0.004
			C-136.978,253.171-137.003,252.642-137.014,252.153z"/>
		<path d="M-121.976,137.937c-0.017-0.054-0.028-0.091-0.028-0.091S-121.994,137.878-121.976,137.937z"/>
		<path d="M-121.961,137.987c-0.004-0.014-0.012-0.038-0.015-0.05c-0.019-0.059-0.028-0.091-0.028-0.091h-15.104v7.148
			c5.094-0.111,10.654-0.771,16.686-2.219C-121.28,140.188-121.816,138.457-121.961,137.987z"/>
		<path opacity="0.25" d="M-121.961,137.987c-0.004-0.014-0.012-0.038-0.015-0.05c-0.019-0.059-0.028-0.091-0.028-0.091h-15.104
			v7.148c5.094-0.111,10.654-0.771,16.686-2.219C-121.28,140.188-121.816,138.457-121.961,137.987z"/>
		<path d="M-136.894,249.491c-0.024-0.762-0.096-1.514-0.215-2.176v5.436c0.036-0.189,0.067-0.391,0.095-0.598
			C-137.036,251.095-136.989,250.22-136.894,249.491z"/>
		<path d="M-118.775,235.492c0.497-1.851,12.276-34.866,11.54-40.268l-20.379,7.121c0,0-5.224,30.438-5.496,32.157
			c-0.273,1.719-0.759,7.914-1.031,9.878c-0.211,1.516-2.226,1.098-2.752,5.111c-0.096,0.729-0.143,1.604-0.12,2.662
			c0.011,0.488,0.036,1.018,0.078,1.588c0.016,0.215,0.031,0.43,0.052,0.656c0.2,2.229,19.582,3.193,19.827,0
			c0.046-0.6,0.042-1.119,0.018-1.611c-0.104-2.131-0.768-3.477-1.246-5.754C-119.326,242.077-119.479,238.112-118.775,235.492z"/>
	</g>
	<g>
		<g>
			<path fill="#56B033" d="M-218.679,258.461c0.356,0,0.714,0,1.07,0c3.806,0,6.981-3.176,6.981-6.98c0-3.807-3.176-6.98-6.981-6.98
				c-0.356,0-0.714,0-1.07,0c-3.806,0-6.981,3.174-6.981,6.98C-225.66,255.285-222.484,258.461-218.679,258.461L-218.679,258.461z"
				/>
		</g>
	</g>
	<g>
		<line fill="#007F41" x1="-68.567" y1="261.545" x2="-66.829" y2="261.545"/>
		<g>
			<path fill="#155470" d="M-68.567,264.779c0.579,0,1.159,0,1.738,0c1.763,0,3.234-1.473,3.234-3.234
				c0-1.764-1.472-3.234-3.234-3.234c-0.579,0-1.159,0-1.738,0c-1.763,0-3.234,1.471-3.234,3.234
				C-71.802,263.307-70.33,264.779-68.567,264.779L-68.567,264.779z"/>
		</g>
	</g>
	<g>
		<line fill="#007F41" x1="-58.348" y1="261.545" x2="-57.954" y2="261.545"/>
		<g>
			<path fill="#155470" d="M-58.348,264.271c0.131,0,0.263,0,0.394,0c1.486,0,2.727-1.24,2.727-2.727s-1.24-2.727-2.727-2.727
				c-0.131,0-0.263,0-0.394,0c-1.486,0-2.727,1.24-2.727,2.727S-59.834,264.271-58.348,264.271L-58.348,264.271z"/>
		</g>
	</g>
	<g>
		<g>
			<path fill="#56B033" d="M-234.195,256.535c0.212,0,0.425,0,0.637,0c2.938,0,5.388-2.451,5.388-5.389s-2.45-5.389-5.388-5.389
				c-0.212,0-0.425,0-0.637,0c-2.938,0-5.388,2.451-5.388,5.389S-237.133,256.535-234.195,256.535L-234.195,256.535z"/>
		</g>
	</g>
	<g>
		<line fill="#26497B" x1="98.733" y1="247.24" x2="202.951" y2="247.24"/>
		<g>
			<path fill="#90BDA0" d="M98.733,253.954c34.739,0,69.479,0,104.218,0c8.663,0,8.663-13.432,0-13.432
				c-34.739,0-69.479,0-104.218,0C90.07,240.522,90.07,253.954,98.733,253.954L98.733,253.954z"/>
		</g>
	</g>
	<g>
		<line fill="#007F41" x1="67" y1="245.169" x2="185.651" y2="245.169"/>
		<g>
			<path fill="#F39624" d="M67,252.383c39.551,0,79.101,0,118.651,0c9.305,0,9.305-14.429,0-14.429c-39.551,0-79.101,0-118.651,0
				C57.695,237.955,57.695,252.383,67,252.383L67,252.383z"/>
		</g>
	</g>
	<g>
		<line fill="#007F41" x1="80.781" y1="254.222" x2="197.632" y2="254.222"/>
		<g>
			<path fill="#009EBD" d="M80.781,257.538c38.95,0,77.9,0,116.851,0c4.277,0,4.277-6.626,0-6.626c-38.95,0-77.9,0-116.851,0
				C76.504,250.912,76.504,257.538,80.781,257.538L80.781,257.538z"/>
		</g>
	</g>
	<g>
		<g>
			<path fill="#F39624" d="M50.491,252.15c0.356,0,0.714,0,1.07,0c3.806,0,6.981-3.175,6.981-6.981s-3.176-6.981-6.981-6.981
				c-0.356,0-0.714,0-1.07,0c-3.806,0-6.981,3.175-6.981,6.981S46.686,252.15,50.491,252.15L50.491,252.15z"/>
		</g>
	</g>
	<g>
		<line fill="#007F41" x1="207.757" y1="254.222" x2="209.495" y2="254.222"/>
		<g>
			<path fill="#009EBD" d="M207.757,257.456c0.579,0,1.159,0,1.738,0c1.763,0,3.234-1.472,3.234-3.234
				c0-1.759-1.472-3.227-3.234-3.227c-0.579,0-1.159,0-1.738,0c-1.763,0-3.234,1.468-3.234,3.227
				C204.522,255.984,205.994,257.456,207.757,257.456L207.757,257.456z"/>
		</g>
	</g>
	<g>
		<line fill="#007F41" x1="217.977" y1="254.222" x2="218.37" y2="254.222"/>
		<g>
			<path fill="#009EBD" d="M217.977,256.948c0.131,0,0.263,0,0.394,0c1.486,0,2.727-1.24,2.727-2.727c0-1.484-1.24-2.72-2.727-2.72
				c-0.131,0-0.263,0-0.394,0c-1.486,0-2.727,1.236-2.727,2.72C215.25,255.708,216.49,256.948,217.977,256.948L217.977,256.948z"/>
		</g>
	</g>
	<g>
		<g>
			<path fill="#F39624" d="M34.975,250.223c0.212,0,0.425,0,0.637,0c2.938,0,5.388-2.451,5.388-5.388s-2.45-5.388-5.388-5.388
				c-0.212,0-0.425,0-0.637,0c-2.938,0-5.388,2.451-5.388,5.388S32.037,250.223,34.975,250.223L34.975,250.223z"/>
		</g>
	</g>
	<path fill="#FFFFFF" stroke="#000000" stroke-width="4.1299" stroke-miterlimit="10" d="M199.459,224.458
		c0,7.065-5.373,12.792-12,12.792h-112c-6.627,0-12-5.728-12-12.792V90.292c0-7.064,5.373-12.792,12-12.792h112
		c6.627,0,12,5.728,12,12.792V224.458z"/>
	<g>
		<g>
			<line fill="#E4341B" x1="131.459" y1="99.256" x2="131.459" y2="119.006"/>
			<g>
				<path fill="#DB161D" d="M125.334,99.256c0,6.583,0,13.167,0,19.75c0,7.899,12.25,7.899,12.25,0c0-6.583,0-13.167,0-19.75
					C137.584,91.356,125.334,91.356,125.334,99.256L125.334,99.256z"/>
			</g>
		</g>
		<g>
			<line fill="#E4341B" x1="121.584" y1="109.182" x2="141.334" y2="109.081"/>
			<g>
				<path fill="#DB161D" d="M121.584,115.307c6.583-0.034,13.167-0.067,19.75-0.101c7.897-0.041,7.901-12.291,0-12.25
					c-6.583,0.034-13.167,0.067-19.75,0.101C113.687,103.097,113.683,115.347,121.584,115.307L121.584,115.307z"/>
			</g>
		</g>
	</g>
	<path fill="none" stroke="#000000" stroke-width="2" stroke-miterlimit="10" d="M81.078,142.167c0,2.301-2.072,2.166-4.373,2.166
		l0,0c-2.302,0-3.96,0.135-3.96-2.166v-6.334c0-2.301,1.865-2.083,4.167-2.083l0,0c2.301,0,4.166-0.218,4.166,2.083V142.167z"/>
	<path fill="none" stroke="#000000" stroke-width="2" stroke-miterlimit="10" d="M96.959,142.167c0,2.301-2.072,2.166-4.373,2.166
		l0,0c-2.303,0-3.961,0.135-3.961-2.166v-6.334c0-2.301,1.865-2.083,4.168-2.083l0,0c2.301,0,4.166-0.218,4.166,2.083V142.167z"/>
	<path fill="none" stroke="#000000" stroke-width="2" stroke-miterlimit="10" d="M112.835,142.167c0,2.301-2.072,2.166-4.373,2.166
		l0,0c-2.302,0-3.96,0.135-3.96-2.166v-6.334c0-2.301,1.865-2.083,4.167-2.083l0,0c2.301,0,4.166-0.218,4.166,2.083V142.167z"/>
	<path fill="none" stroke="#000000" stroke-width="2" stroke-miterlimit="10" d="M160.465,142.167c0,2.301-2.072,2.166-4.373,2.166
		l0,0c-2.302,0-3.96,0.135-3.96-2.166v-6.334c0-2.301,1.865-2.083,4.167-2.083l0,0c2.301,0,4.166-0.218,4.166,2.083V142.167z"/>
	<path fill="none" stroke="#000000" stroke-width="2" stroke-miterlimit="10" d="M176.342,142.167c0,2.301-2.072,2.166-4.373,2.166
		l0,0c-2.301,0-3.959,0.135-3.959-2.166v-6.334c0-2.301,1.865-2.083,4.166-2.083l0,0c2.301,0,4.166-0.218,4.166,2.083V142.167z"/>
	<path fill="none" stroke="#000000" stroke-width="2" stroke-miterlimit="10" d="M192.215,142.167c0,2.301-2.072,2.166-4.373,2.166
		l0,0c-2.302,0-3.96,0.135-3.96-2.166v-6.334c0-2.301,1.865-2.083,4.167-2.083l0,0c2.301,0,4.166-0.218,4.166,2.083V142.167z"/>
	<path fill="none" stroke="#000000" stroke-width="2" stroke-miterlimit="10" d="M128.712,142.167c0,2.301-2.072,2.166-4.373,2.166
		l0,0c-2.302,0-3.96,0.135-3.96-2.166v-6.334c0-2.301,1.865-2.083,4.167-2.083l0,0c2.301,0,4.166-0.218,4.166,2.083V142.167z"/>
	<path fill="none" stroke="#000000" stroke-width="2" stroke-miterlimit="10" d="M144.589,142.167c0,2.301-2.072,2.166-4.373,2.166
		l0,0c-2.302,0-3.96,0.135-3.96-2.166v-6.334c0-2.301,1.865-2.083,4.167-2.083l0,0c2.301,0,4.166-0.218,4.166,2.083V142.167z"/>
	<path fill="none" stroke="#000000" stroke-width="2" stroke-miterlimit="10" d="M80.921,160.294c0,2.301-2.072,2.166-4.373,2.166
		l0,0c-2.302,0-3.96,0.135-3.96-2.166v-6.334c0-2.301,1.865-2.083,4.167-2.083l0,0c2.301,0,4.166-0.218,4.166,2.083V160.294z"/>
	<path fill="none" stroke="#000000" stroke-width="2" stroke-miterlimit="10" d="M96.802,160.294c0,2.301-2.072,2.166-4.373,2.166
		l0,0c-2.303,0-3.961,0.135-3.961-2.166v-6.334c0-2.301,1.865-2.083,4.168-2.083l0,0c2.301,0,4.166-0.218,4.166,2.083V160.294z"/>
	<path fill="none" stroke="#000000" stroke-width="2" stroke-miterlimit="10" d="M112.678,160.294c0,2.301-2.072,2.166-4.373,2.166
		l0,0c-2.302,0-3.96,0.135-3.96-2.166v-6.334c0-2.301,1.865-2.083,4.167-2.083l0,0c2.301,0,4.166-0.218,4.166,2.083V160.294z"/>
	<path fill="none" stroke="#000000" stroke-width="2" stroke-miterlimit="10" d="M160.308,160.294c0,2.301-2.072,2.166-4.373,2.166
		l0,0c-2.302,0-3.96,0.135-3.96-2.166v-6.334c0-2.301,1.865-2.083,4.167-2.083l0,0c2.301,0,4.166-0.218,4.166,2.083V160.294z"/>
	<path fill="none" stroke="#000000" stroke-width="2" stroke-miterlimit="10" d="M176.185,160.294c0,2.301-2.072,2.166-4.373,2.166
		l0,0c-2.301,0-3.959,0.135-3.959-2.166v-6.334c0-2.301,1.865-2.083,4.166-2.083l0,0c2.301,0,4.166-0.218,4.166,2.083V160.294z"/>
	<path fill="none" stroke="#000000" stroke-width="2" stroke-miterlimit="10" d="M192.058,160.294c0,2.301-2.072,2.166-4.373,2.166
		l0,0c-2.302,0-3.96,0.135-3.96-2.166v-6.334c0-2.301,1.865-2.083,4.167-2.083l0,0c2.301,0,4.166-0.218,4.166,2.083V160.294z"/>
	<path fill="none" stroke="#000000" stroke-width="2" stroke-miterlimit="10" d="M128.555,160.294c0,2.301-2.072,2.166-4.373,2.166
		l0,0c-2.302,0-3.96,0.135-3.96-2.166v-6.334c0-2.301,1.865-2.083,4.167-2.083l0,0c2.301,0,4.166-0.218,4.166,2.083V160.294z"/>
	<path fill="none" stroke="#000000" stroke-width="2" stroke-miterlimit="10" d="M144.432,160.294c0,2.301-2.072,2.166-4.373,2.166
		l0,0c-2.302,0-3.96,0.135-3.96-2.166v-6.334c0-2.301,1.865-2.083,4.167-2.083l0,0c2.301,0,4.166-0.218,4.166,2.083V160.294z"/>
	<path fill="none" stroke="#000000" stroke-width="2" stroke-miterlimit="10" d="M81.082,178c0,2.301-2.072,2.166-4.373,2.166l0,0
		c-2.302,0-3.96,0.135-3.96-2.166v-6.334c0-2.301,1.865-2.083,4.167-2.083l0,0c2.301,0,4.166-0.218,4.166,2.083V178z"/>
	<path fill="none" stroke="#000000" stroke-width="2" stroke-miterlimit="10" d="M96.963,178c0,2.301-2.072,2.166-4.373,2.166l0,0
		c-2.303,0-3.961,0.135-3.961-2.166v-6.334c0-2.301,1.865-2.083,4.168-2.083l0,0c2.301,0,4.166-0.218,4.166,2.083V178z"/>
	<path fill="none" stroke="#000000" stroke-width="2" stroke-miterlimit="10" d="M112.839,178c0,2.301-2.072,2.166-4.373,2.166l0,0
		c-2.302,0-3.96,0.135-3.96-2.166v-6.334c0-2.301,1.865-2.083,4.167-2.083l0,0c2.301,0,4.166-0.218,4.166,2.083V178z"/>
	<path fill="none" stroke="#000000" stroke-width="2" stroke-miterlimit="10" d="M160.469,178c0,2.301-2.072,2.166-4.373,2.166l0,0
		c-2.302,0-3.96,0.135-3.96-2.166v-6.334c0-2.301,1.865-2.083,4.167-2.083l0,0c2.301,0,4.166-0.218,4.166,2.083V178z"/>
	<path fill="none" stroke="#000000" stroke-width="2" stroke-miterlimit="10" d="M176.346,178c0,2.301-2.072,2.166-4.373,2.166l0,0
		c-2.301,0-3.959,0.135-3.959-2.166v-6.334c0-2.301,1.865-2.083,4.166-2.083l0,0c2.301,0,4.166-0.218,4.166,2.083V178z"/>
	<path fill="none" stroke="#000000" stroke-width="2" stroke-miterlimit="10" d="M192.219,178c0,2.301-2.072,2.166-4.373,2.166l0,0
		c-2.302,0-3.96,0.135-3.96-2.166v-6.334c0-2.301,1.865-2.083,4.167-2.083l0,0c2.301,0,4.166-0.218,4.166,2.083V178z"/>
	<path fill="none" stroke="#000000" stroke-width="2" stroke-miterlimit="10" d="M128.716,178c0,2.301-2.072,2.166-4.373,2.166l0,0
		c-2.302,0-3.96,0.135-3.96-2.166v-6.334c0-2.301,1.865-2.083,4.167-2.083l0,0c2.301,0,4.166-0.218,4.166,2.083V178z"/>
	<path fill="none" stroke="#000000" stroke-width="2" stroke-miterlimit="10" d="M144.593,178c0,2.301-2.072,2.166-4.373,2.166l0,0
		c-2.302,0-3.96,0.135-3.96-2.166v-6.334c0-2.301,1.865-2.083,4.167-2.083l0,0c2.301,0,4.166-0.218,4.166,2.083V178z"/>
	<path fill="none" stroke="#000000" stroke-width="2" stroke-miterlimit="10" d="M81.086,195.5c0,2.301-2.072,2.166-4.373,2.166l0,0
		c-2.302,0-3.96,0.135-3.96-2.166v-6.334c0-2.301,1.865-2.083,4.167-2.083l0,0c2.301,0,4.166-0.218,4.166,2.083V195.5z"/>
	<path fill="none" stroke="#000000" stroke-width="2" stroke-miterlimit="10" d="M96.967,195.5c0,2.301-2.072,2.166-4.373,2.166l0,0
		c-2.303,0-3.961,0.135-3.961-2.166v-6.334c0-2.301,1.865-2.083,4.168-2.083l0,0c2.301,0,4.166-0.218,4.166,2.083V195.5z"/>
	<path fill="none" stroke="#000000" stroke-width="2" stroke-miterlimit="10" d="M112.843,195.5c0,2.301-2.072,2.166-4.373,2.166
		l0,0c-2.302,0-3.96,0.135-3.96-2.166v-6.334c0-2.301,1.865-2.083,4.167-2.083l0,0c2.301,0,4.166-0.218,4.166,2.083V195.5z"/>
	<path fill="none" stroke="#000000" stroke-width="2" stroke-miterlimit="10" d="M160.473,195.5c0,2.301-2.072,2.166-4.373,2.166
		l0,0c-2.302,0-3.96,0.135-3.96-2.166v-6.334c0-2.301,1.865-2.083,4.167-2.083l0,0c2.301,0,4.166-0.218,4.166,2.083V195.5z"/>
	<path fill="none" stroke="#000000" stroke-width="2" stroke-miterlimit="10" d="M176.35,195.5c0,2.301-2.072,2.166-4.373,2.166l0,0
		c-2.301,0-3.959,0.135-3.959-2.166v-6.334c0-2.301,1.865-2.083,4.166-2.083l0,0c2.301,0,4.166-0.218,4.166,2.083V195.5z"/>
	<path fill="none" stroke="#000000" stroke-width="2" stroke-miterlimit="10" d="M192.223,195.5c0,2.301-2.072,2.166-4.373,2.166
		l0,0c-2.302,0-3.96,0.135-3.96-2.166v-6.334c0-2.301,1.865-2.083,4.167-2.083l0,0c2.301,0,4.166-0.218,4.166,2.083V195.5z"/>
	<path fill="none" stroke="#000000" stroke-width="2" stroke-miterlimit="10" d="M128.72,195.5c0,2.301-2.072,2.166-4.373,2.166l0,0
		c-2.302,0-3.96,0.135-3.96-2.166v-6.334c0-2.301,1.865-2.083,4.167-2.083l0,0c2.301,0,4.166-0.218,4.166,2.083V195.5z"/>
	<path fill="none" stroke="#000000" stroke-width="2" stroke-miterlimit="10" d="M144.597,195.5c0,2.301-2.072,2.166-4.373,2.166
		l0,0c-2.302,0-3.96,0.135-3.96-2.166v-6.334c0-2.301,1.865-2.083,4.167-2.083l0,0c2.301,0,4.166-0.218,4.166,2.083V195.5z"/>
	<path fill="none" stroke="#000000" stroke-width="2" stroke-miterlimit="10" d="M81.09,213.5c0,2.301-2.072,2.166-4.373,2.166l0,0
		c-2.302,0-3.96,0.135-3.96-2.166v-6.334c0-2.301,1.865-2.083,4.167-2.083l0,0c2.301,0,4.166-0.218,4.166,2.083V213.5z"/>
	<path fill="none" stroke="#000000" stroke-width="2" stroke-miterlimit="10" d="M96.971,213.5c0,2.301-2.072,2.166-4.373,2.166l0,0
		c-2.303,0-3.961,0.135-3.961-2.166v-6.334c0-2.301,1.865-2.083,4.168-2.083l0,0c2.301,0,4.166-0.218,4.166,2.083V213.5z"/>
	<path fill="none" stroke="#000000" stroke-width="2" stroke-miterlimit="10" d="M112.847,213.5c0,2.301-2.072,2.166-4.373,2.166
		l0,0c-2.302,0-3.96,0.135-3.96-2.166v-6.334c0-2.301,1.865-2.083,4.167-2.083l0,0c2.301,0,4.166-0.218,4.166,2.083V213.5z"/>
	<path fill="none" stroke="#000000" stroke-width="2" stroke-miterlimit="10" d="M160.477,213.5c0,2.301-2.072,2.166-4.373,2.166
		l0,0c-2.302,0-3.96,0.135-3.96-2.166v-6.334c0-2.301,1.865-2.083,4.167-2.083l0,0c2.301,0,4.166-0.218,4.166,2.083V213.5z"/>
	<path fill="none" stroke="#000000" stroke-width="2" stroke-miterlimit="10" d="M176.354,213.5c0,2.301-2.072,2.166-4.373,2.166
		l0,0c-2.301,0-3.959,0.135-3.959-2.166v-6.334c0-2.301,1.865-2.083,4.166-2.083l0,0c2.301,0,4.166-0.218,4.166,2.083V213.5z"/>
	<path fill="none" stroke="#000000" stroke-width="2" stroke-miterlimit="10" d="M192.227,213.5c0,2.301-2.072,2.166-4.373,2.166
		l0,0c-2.302,0-3.96,0.135-3.96-2.166v-6.334c0-2.301,1.865-2.083,4.167-2.083l0,0c2.301,0,4.166-0.218,4.166,2.083V213.5z"/>
	<path fill="none" stroke="#000000" stroke-width="2" stroke-miterlimit="10" d="M80.917,122.133c0,2.301-2.072,2.166-4.373,2.166
		l0,0c-2.302,0-3.96,0.135-3.96-2.166v-6.334c0-2.301,1.865-2.083,4.167-2.083l0,0c2.301,0,4.166-0.218,4.166,2.083V122.133z"/>
	<path fill="none" stroke="#000000" stroke-width="2" stroke-miterlimit="10" d="M96.798,122.133c0,2.301-2.072,2.166-4.373,2.166
		l0,0c-2.303,0-3.961,0.135-3.961-2.166v-6.334c0-2.301,1.865-2.083,4.168-2.083l0,0c2.301,0,4.166-0.218,4.166,2.083V122.133z"/>
	<path fill="none" stroke="#000000" stroke-width="2" stroke-miterlimit="10" d="M112.674,122.133c0,2.301-2.072,2.166-4.373,2.166
		l0,0c-2.302,0-3.96,0.135-3.96-2.166v-6.334c0-2.301,1.865-2.083,4.167-2.083l0,0c2.301,0,4.166-0.218,4.166,2.083V122.133z"/>
	<path fill="none" stroke="#000000" stroke-width="2" stroke-miterlimit="10" d="M80.438,102.383c0,2.301-2.072,2.166-4.373,2.166
		l0,0c-2.302,0-3.96,0.135-3.96-2.166v-6.334c0-2.301,1.865-2.083,4.167-2.083l0,0c2.301,0,4.166-0.218,4.166,2.083V102.383z"/>
	<path fill="none" stroke="#000000" stroke-width="2" stroke-miterlimit="10" d="M96.318,102.383c0,2.301-2.072,2.166-4.373,2.166
		l0,0c-2.303,0-3.961,0.135-3.961-2.166v-6.334c0-2.301,1.865-2.083,4.168-2.083l0,0c2.301,0,4.166-0.218,4.166,2.083V102.383z"/>
	<path fill="none" stroke="#000000" stroke-width="2" stroke-miterlimit="10" d="M112.194,102.383c0,2.301-2.072,2.166-4.373,2.166
		l0,0c-2.302,0-3.96,0.135-3.96-2.166v-6.334c0-2.301,1.865-2.083,4.167-2.083l0,0c2.301,0,4.166-0.218,4.166,2.083V102.383z"/>
	<path fill="none" stroke="#000000" stroke-width="2" stroke-miterlimit="10" d="M160.343,122.184c0,2.301-2.072,2.166-4.373,2.166
		l0,0c-2.302,0-3.96,0.135-3.96-2.166v-6.334c0-2.301,1.865-2.083,4.167-2.083l0,0c2.301,0,4.166-0.218,4.166,2.083V122.184z"/>
	<path fill="none" stroke="#000000" stroke-width="2" stroke-miterlimit="10" d="M176.224,122.184c0,2.301-2.072,2.166-4.373,2.166
		l0,0c-2.303,0-3.961,0.135-3.961-2.166v-6.334c0-2.301,1.865-2.083,4.168-2.083l0,0c2.301,0,4.166-0.218,4.166,2.083V122.184z"/>
	<path fill="none" stroke="#000000" stroke-width="2" stroke-miterlimit="10" d="M192.1,122.184c0,2.301-2.072,2.166-4.373,2.166
		l0,0c-2.302,0-3.96,0.135-3.96-2.166v-6.334c0-2.301,1.865-2.083,4.167-2.083l0,0c2.301,0,4.166-0.218,4.166,2.083V122.184z"/>
	<path fill="none" stroke="#000000" stroke-width="2" stroke-miterlimit="10" d="M159.863,102.434c0,2.301-2.072,2.166-4.373,2.166
		l0,0c-2.302,0-3.96,0.135-3.96-2.166V96.1c0-2.301,1.865-2.083,4.167-2.083l0,0c2.301,0,4.166-0.218,4.166,2.083V102.434z"/>
	<path fill="none" stroke="#000000" stroke-width="2" stroke-miterlimit="10" d="M175.744,102.434c0,2.301-2.072,2.166-4.373,2.166
		l0,0c-2.303,0-3.961,0.135-3.961-2.166V96.1c0-2.301,1.865-2.083,4.168-2.083l0,0c2.301,0,4.166-0.218,4.166,2.083V102.434z"/>
	<path fill="none" stroke="#000000" stroke-width="2" stroke-miterlimit="10" d="M191.62,102.434c0,2.301-2.072,2.166-4.373,2.166
		l0,0c-2.302,0-3.96,0.135-3.96-2.166V96.1c0-2.301,1.865-2.083,4.167-2.083l0,0c2.301,0,4.166-0.218,4.166,2.083V102.434z"/>
	<path fill="#B8BABC" stroke="#000000" stroke-width="3" stroke-miterlimit="10" d="M143.25,224.223
		c0,13.027-2.217,11.966-10.091,11.966h-1.484c-7.874,0-10.091,1.061-10.091-11.966v-7.985c0-7.931,2.959-11.162,10.833-11.162
		h1.484c7.874,0,9.349,3.231,9.349,11.162V224.223z"/>
	<line fill="none" stroke="#000000" stroke-width="3" stroke-miterlimit="10" x1="132.417" y1="205.076" x2="132.417" y2="234.75"/>
	<path fill="none" stroke="#000000" stroke-width="2" stroke-miterlimit="10" d="M160.303,229.771c0,2.301-2.072,2.166-4.373,2.166
		l0,0c-2.302,0-3.96,0.135-3.96-2.166v-6.334c0-2.301,1.865-2.083,4.167-2.083l0,0c2.301,0,4.166-0.218,4.166,2.083V229.771z"/>
	<path fill="none" stroke="#000000" stroke-width="2" stroke-miterlimit="10" d="M176.18,229.771c0,2.301-2.072,2.166-4.373,2.166
		l0,0c-2.301,0-3.959,0.135-3.959-2.166v-6.334c0-2.301,1.865-2.083,4.166-2.083l0,0c2.301,0,4.166-0.218,4.166,2.083V229.771z"/>
	<path fill="none" stroke="#000000" stroke-width="2" stroke-miterlimit="10" d="M192.053,229.771c0,2.301-2.072,2.166-4.373,2.166
		l0,0c-2.302,0-3.96,0.135-3.96-2.166v-6.334c0-2.301,1.865-2.083,4.167-2.083l0,0c2.301,0,4.166-0.218,4.166,2.083V229.771z"/>
	<path fill="none" stroke="#000000" stroke-width="2" stroke-miterlimit="10" d="M80.923,229.771c0,2.301-2.072,2.166-4.373,2.166
		l0,0c-2.302,0-3.96,0.135-3.96-2.166v-6.334c0-2.301,1.865-2.083,4.167-2.083l0,0c2.301,0,4.166-0.218,4.166,2.083V229.771z"/>
	<path fill="none" stroke="#000000" stroke-width="2" stroke-miterlimit="10" d="M96.8,229.771c0,2.301-2.072,2.166-4.373,2.166l0,0
		c-2.301,0-3.959,0.135-3.959-2.166v-6.334c0-2.301,1.865-2.083,4.166-2.083l0,0c2.301,0,4.166-0.218,4.166,2.083V229.771z"/>
	<path fill="none" stroke="#000000" stroke-width="2" stroke-miterlimit="10" d="M112.673,229.771c0,2.301-2.072,2.166-4.373,2.166
		l0,0c-2.302,0-3.96,0.135-3.96-2.166v-6.334c0-2.301,1.865-2.083,4.167-2.083l0,0c2.301,0,4.166-0.218,4.166,2.083V229.771z"/>
</g>
<g id="Layer_2">
</g>
</svg>
