<?xml version="1.0" encoding="iso-8859-1"?>
<!-- Generator: Adobe Illustrator 19.0.0, SVG Export Plug-In . SVG Version: 6.00 Build 0)  -->
<svg version="1.1" id="Layer_1" xmlns="http://www.w3.org/2000/svg" xmlns:xlink="http://www.w3.org/1999/xlink" x="0px" y="0px"
	 viewBox="0 0 512 512" style="enable-background:new 0 0 512 512;" xml:space="preserve">
<path style="fill:#F5DC60;" d="M208.373,369.117v95.256c0,26.305,21.323,47.628,47.628,47.628c26.305,0,47.628-21.323,47.628-47.628
	v-95.256H208.373z"/>
<path style="fill:#F8E99B;" d="M160.746,297.675c-19.727,0-35.721,15.993-35.721,35.721v71.442c0,36.17,29.318,65.488,65.488,65.488
	s65.488-29.318,65.488-65.488V357.21"/>
<g>
	<path style="fill:#F6E27D;" d="M351.256,297.675H256v107.163c0,36.17,29.318,65.488,65.488,65.488s65.488-29.318,65.488-65.488
		v-71.442C386.976,313.668,370.984,297.675,351.256,297.675z"/>
	<path style="fill:#F6E27D;" d="M256.001,47.629c-72.336,0-130.976,42.647-130.976,95.256v130.976h261.953V142.885
		C386.976,90.276,328.338,47.629,256.001,47.629z"/>
</g>
<path style="fill:#F5DC60;" d="M386.976,142.885c0-52.608-58.639-95.256-130.976-95.256v178.604h130.976V142.885z"/>
<path style="fill:#D8CCBC;" d="M315.535,261.954v-35.721c0-32.879-26.655-59.535-59.535-59.535s-59.535,26.656-59.535,59.535v35.721
	c-19.727,0-35.721,15.993-35.721,35.721s15.993,35.721,35.721,35.721c29.767,0,29.767,23.814,59.535,23.814
	c29.767,0,29.767-23.814,59.535-23.814c19.727,0,35.721-15.993,35.721-35.721S335.263,261.954,315.535,261.954z"/>
<path style="fill:#F8E99B;" d="M125.025,142.885V0.001c-39.456,0-71.442,31.986-71.442,71.442S85.569,142.885,125.025,142.885z"/>
<path style="fill:#F6E27D;" d="M386.978,0l-0.001,142.883c39.456,0,71.442-31.986,71.442-71.442C458.419,31.986,426.434,0,386.978,0
	z"/>
<circle style="fill:#F8F8F9;" cx="125.024" cy="214.325" r="71.442"/>
<path style="fill:#58575D;" d="M101.211,190.512v23.814c0,13.131,10.682,23.814,23.812,23.814h0.002
	c13.131,0,23.814-10.683,23.814-23.814v-23.814H101.211z"/>
<path style="fill:#F8E99B;" d="M125.025,142.885c-39.456,0-71.442,31.986-71.442,71.442h142.883
	C196.466,174.87,164.48,142.885,125.025,142.885z"/>
<circle style="fill:#EDEDED;" cx="386.976" cy="214.325" r="71.442"/>
<path style="fill:#454449;" d="M363.163,190.512v23.814c0,13.131,10.682,23.814,23.811,23.814h0.002
	c13.131,0,23.814-10.683,23.814-23.814v-23.814H363.163z"/>
<path style="fill:#F6E27D;" d="M386.976,142.885c-39.456,0-71.442,31.986-71.442,71.442h142.883
	C458.418,174.87,426.432,142.885,386.976,142.885z"/>
<path style="fill:#C6BBAF;" d="M315.535,261.954v-35.721c0-32.879-26.655-59.535-59.535-59.535V357.21
	c29.767,0,29.767-23.814,59.535-23.814c19.727,0,35.721-15.993,35.721-35.721S335.263,261.954,315.535,261.954z"/>
<g>
</g>
<g>
</g>
<g>
</g>
<g>
</g>
<g>
</g>
<g>
</g>
<g>
</g>
<g>
</g>
<g>
</g>
<g>
</g>
<g>
</g>
<g>
</g>
<g>
</g>
<g>
</g>
<g>
</g>
</svg>
