<?xml version="1.0" encoding="iso-8859-1"?>
<!-- Generator: Adobe Illustrator 19.0.0, SVG Export Plug-In . SVG Version: 6.00 Build 0)  -->
<svg version="1.1" id="Layer_1" xmlns="http://www.w3.org/2000/svg" xmlns:xlink="http://www.w3.org/1999/xlink" x="0px" y="0px"
	 viewBox="0 0 512 512" style="enable-background:new 0 0 512 512;" xml:space="preserve">
<path style="fill:#95D5A7;" d="M142.051,182.418C57.85,207.571,0,259.734,0,320c0,84.831,114.615,153.6,256,153.6
	S512,404.831,512,320c0-60.268-57.85-112.429-142.052-137.582"/>
<path style="fill:#80CB93;" d="M369.948,182.418H256V473.6c141.385,0,256-68.769,256-153.6
	C512,259.732,454.15,207.571,369.948,182.418z"/>
<g>
	<path style="fill:#477E48;" d="M489.92,339.2c-56.403,0-83.823-6.002-112.855-12.356C347.318,320.333,316.557,313.6,256,313.6
		s-91.318,6.733-121.065,13.244C105.903,333.198,78.483,339.2,22.08,339.2C9.905,339.2,0,330.588,0,320
		c0,20.332,6.598,39.735,18.556,57.495c1.166,0.064,2.34,0.105,3.524,0.105c60.557,0,91.318-6.733,121.065-13.244
		C172.177,358.003,199.597,352,256,352s83.823,6.003,112.855,12.356c29.747,6.511,60.508,13.244,121.065,13.244
		c1.184,0,2.358-0.041,3.524-0.105C505.402,359.735,512,340.332,512,320C512,330.588,502.095,339.2,489.92,339.2z"/>
	<rect x="198.4" y="230.4" style="fill:#477E48;" width="38.4" height="51.2"/>
</g>
<g>
	<rect x="275.2" y="230.4" style="fill:#417242;" width="38.4" height="51.2"/>
	<path style="fill:#417242;" d="M489.92,339.2c-56.403,0-83.823-6.002-112.855-12.356C347.318,320.333,316.557,313.6,256,313.6V352
		c56.403,0,83.823,6.003,112.855,12.356c29.747,6.511,60.508,13.244,121.065,13.244c1.184,0,2.358-0.041,3.524-0.105
		C505.402,359.735,512,340.332,512,320C512,330.588,502.095,339.2,489.92,339.2z"/>
</g>
<circle style="fill:#F8F8F9;" cx="179.2" cy="115.2" r="76.8"/>
<circle style="fill:#EDEDED;" cx="332.8" cy="115.2" r="76.8"/>
<rect x="313.6" y="89.6" style="fill:#454449;" width="38.4" height="51.2"/>
<rect x="160" y="89.6" style="fill:#58575D;" width="38.4" height="51.2"/>
<g>
</g>
<g>
</g>
<g>
</g>
<g>
</g>
<g>
</g>
<g>
</g>
<g>
</g>
<g>
</g>
<g>
</g>
<g>
</g>
<g>
</g>
<g>
</g>
<g>
</g>
<g>
</g>
<g>
</g>
</svg>
