<?xml version="1.0" encoding="iso-8859-1"?>
<!-- Generator: Adobe Illustrator 19.0.0, SVG Export Plug-In . SVG Version: 6.00 Build 0)  -->
<svg version="1.1" id="Layer_1" xmlns="http://www.w3.org/2000/svg" xmlns:xlink="http://www.w3.org/1999/xlink" x="0px" y="0px"
	 viewBox="0 0 511.997 511.997" style="enable-background:new 0 0 511.997 511.997;" xml:space="preserve">
<path style="fill:#EFC27B;" d="M505.938,256.346c0-22.951,9.584-46.853,3.926-68.021c-5.854-21.902-26.274-37.784-37.369-56.961
	c-11.254-19.452-14.913-45.029-30.699-60.816c-15.786-15.786-41.363-19.444-60.815-30.699
	c-19.175-11.095-35.058-31.514-56.959-37.368c-21.168-5.658-45.07,3.926-68.021,3.926c-22.951,0-46.853-9.584-68.021-3.926
	c-21.902,5.854-37.784,26.274-56.961,37.369C111.569,51.105,85.992,54.764,70.205,70.55c-15.79,15.786-19.448,41.363-30.703,60.815
	c-11.095,19.176-31.515,35.058-37.369,56.961c-5.658,21.168,3.926,45.07,3.926,68.021s-9.584,46.853-3.926,68.021
	c5.854,21.902,26.276,37.784,37.369,56.961c11.255,19.452,14.913,45.029,30.699,60.816c15.787,15.786,41.363,19.444,60.816,30.699
	c19.176,11.095,35.058,31.514,56.961,37.368c21.168,5.658,45.07-3.926,68.021-3.926s46.854,9.584,68.021,3.926
	c21.902-5.854,37.784-26.274,56.961-37.369c19.452-11.255,45.029-14.913,60.815-30.699c15.786-15.786,19.444-41.363,30.699-60.816
	c11.093-19.176,31.515-35.058,37.368-56.961C515.521,303.2,505.938,279.298,505.938,256.346z"/>
<path style="fill:#ECB45C;" d="M509.863,187.63c-5.854-21.902-26.274-37.784-37.369-56.961
	c-11.254-19.452-14.913-45.029-30.699-60.816c-15.786-15.786-41.363-19.444-60.815-30.699
	C361.805,28.06,345.922,7.641,324.021,1.787C302.853-3.87,278.951,5.713,256,5.713v499.879c22.951,0,46.854,9.584,68.021,3.926
	c21.902-5.854,37.784-26.273,56.961-37.369c19.452-11.255,45.029-14.913,60.815-30.699c15.786-15.786,19.444-41.363,30.699-60.816
	c11.093-19.176,31.515-35.058,37.368-56.961c5.658-21.168-3.926-45.07-3.926-68.021C505.938,232.7,515.521,208.798,509.863,187.63z"
	/>
<path style="fill:#F8E99B;" d="M243.182,435.789c-42.473,0-76.904-34.431-76.904-76.904c0-38.452-76.904-38.452-76.904-102.539
	c0-49.552,40.17-89.722,89.722-89.722c38.452,0,38.452,25.635,76.904,25.635s38.452-25.635,76.904-25.635
	c49.552,0,89.722,40.17,89.722,89.722c0,64.087-76.904,64.087-76.904,102.539c0,42.473-34.431,76.904-76.904,76.904H243.182z"/>
<path style="fill:#F6E27D;" d="M332.904,166.624c-38.452,0-38.452,25.635-76.904,25.635v243.531h12.817
	c42.473,0,76.904-34.431,76.904-76.904c0-38.452,76.904-38.452,76.904-102.539C422.625,206.794,382.456,166.624,332.904,166.624z"/>
<path style="fill:#58575D;" d="M185.503,288.389h-0.003c-14.134,0-25.632-11.5-25.632-25.635
	c0.005-14.138,11.505-25.635,25.635-25.635c14.135,0,25.635,11.5,25.635,25.635C211.138,276.89,199.637,288.389,185.503,288.389z"/>
<path style="fill:#454449;" d="M326.495,288.389h-0.003c-14.134,0-25.632-11.5-25.632-25.635
	c0.005-14.138,11.505-25.635,25.635-25.635c14.135,0,25.635,11.5,25.635,25.635C352.13,276.89,340.63,288.389,326.495,288.389z"/>
<path style="fill:#A58868;" d="M339.312,378.111c0,17.669-14.375,32.043-32.043,32.043s-32.043-14.375-32.043-32.043v-38.452
	h-38.452v38.452c0,17.669-14.375,32.043-32.044,32.043s-32.044-14.375-32.044-32.043h-38.452c0,38.871,31.624,70.496,70.496,70.496
	c20.187,0,38.406-8.543,51.27-22.187c12.864,13.644,31.082,22.187,51.27,22.187c38.871,0,70.496-31.624,70.496-70.496H339.312z"/>
<path style="fill:#947859;" d="M339.312,378.111c0,17.669-14.375,32.043-32.043,32.043s-32.043-14.375-32.043-32.043v-38.452
	h-19.226v86.761c12.864,13.644,31.082,22.187,51.27,22.187c38.871,0,70.496-31.624,70.496-70.496H339.312z"/>
<path style="fill:#58575D;" d="M297.015,341.196c-6.737,20.444-24.789,42.981-41.016,43.324
	c-16.227-0.345-34.279-22.882-41.016-43.324c-3.111-10.445,4.931-19.089,17.944-19.226c15.381,0,30.762,0,46.143,0
	C292.084,322.108,300.126,330.75,297.015,341.196z"/>
<path style="fill:#454449;" d="M279.07,321.97c-7.69,0-15.381,0-23.071,0v62.55c16.227-0.345,34.279-22.882,41.016-43.324
	C300.126,330.75,292.084,322.108,279.07,321.97z"/>
<g>
</g>
<g>
</g>
<g>
</g>
<g>
</g>
<g>
</g>
<g>
</g>
<g>
</g>
<g>
</g>
<g>
</g>
<g>
</g>
<g>
</g>
<g>
</g>
<g>
</g>
<g>
</g>
<g>
</g>
</svg>
