<?xml version="1.0" encoding="iso-8859-1"?>
<!-- Generator: Adobe Illustrator 19.0.0, SVG Export Plug-In . SVG Version: 6.00 Build 0)  -->
<svg version="1.1" id="Layer_1" xmlns="http://www.w3.org/2000/svg" xmlns:xlink="http://www.w3.org/1999/xlink" x="0px" y="0px"
	 viewBox="0 0 512 512" style="enable-background:new 0 0 512 512;" xml:space="preserve">
<path style="fill:#B29A7E;" d="M189.614,68.281c-4.138-6.764-9.134-13.152-14.987-19.006c-39.948-39.948-104.718-39.948-144.667,0
	C-9.988,89.223-9.986,153.991,29.962,193.939c5.855,5.855,12.243,10.852,19.006,14.99"/>
<path style="fill:#A58868;" d="M463.031,208.927c6.767-4.136,13.155-9.132,19.006-14.986
	c39.951-39.948,39.951-104.718,0.001-144.666c-39.949-39.949-104.716-39.948-144.665,0c-5.856,5.855-10.852,12.243-14.991,19.011"/>
<circle style="fill:#BFA993;" cx="256.002" cy="275.31" r="217.373"/>
<path style="fill:#B29A7E;" d="M256,57.94v434.747c120.053,0,217.373-97.321,217.373-217.373
	C473.373,155.262,376.052,57.94,256,57.94z"/>
<path style="fill:#EBE4DD;" d="M115.347,249.74c0-49.433,40.073-89.507,89.507-89.507c19.023,0,36.645,5.952,51.147,16.07
	c14.5-10.119,32.124-16.07,51.147-16.07c49.433,0,89.507,40.073,89.507,89.507c0,63.933-63.933,63.722-63.933,102.293
	c0,3.727,0,0,0,0c0,42.371-34.349,76.72-76.72,76.72s-76.72-34.349-76.72-76.72c0,0,0,3.727,0,0
	C179.279,313.463,115.347,313.674,115.347,249.74z"/>
<path style="fill:#D8CCBC;" d="M307.146,160.234c-19.023,0-36.647,5.952-51.147,16.07v252.45c42.371,0,76.72-34.349,76.72-76.72
	c0-38.571,63.933-38.36,63.933-102.293C396.653,200.307,356.581,160.234,307.146,160.234z"/>
<path style="fill:#58575D;" d="M211.246,268.92h-0.003c-14.1,0-25.571-11.472-25.571-25.573
	c0.005-14.104,11.477-25.573,25.573-25.573c14.101,0,25.573,11.472,25.573,25.573C236.82,257.448,225.347,268.92,211.246,268.92z"/>
<path style="fill:#454449;" d="M300.753,268.92h-0.003c-14.1,0-25.571-11.472-25.571-25.573
	c0.005-14.104,11.477-25.573,25.573-25.573c14.101,0,25.573,11.472,25.573,25.573C326.326,257.448,314.854,268.92,300.753,268.92z"
	/>
<path style="fill:#A58868;" d="M256,352.034h-38.36c0-9.777-3.092-19.059-8.939-26.842l30.669-23.042
	C250.248,316.633,256,333.88,256,352.034z"/>
<path style="fill:#947859;" d="M294.362,352.034h-38.36c0-18.153,5.75-35.401,16.629-49.883l30.669,23.042
	C297.453,332.975,294.362,342.258,294.362,352.034z"/>
<g>
</g>
<g>
</g>
<g>
</g>
<g>
</g>
<g>
</g>
<g>
</g>
<g>
</g>
<g>
</g>
<g>
</g>
<g>
</g>
<g>
</g>
<g>
</g>
<g>
</g>
<g>
</g>
<g>
</g>
</svg>
