<?xml version="1.0" encoding="iso-8859-1"?>
<!-- Generator: Adobe Illustrator 19.0.0, SVG Export Plug-In . SVG Version: 6.00 Build 0)  -->
<svg version="1.1" id="Layer_1" xmlns="http://www.w3.org/2000/svg" xmlns:xlink="http://www.w3.org/1999/xlink" x="0px" y="0px"
	 viewBox="0 0 511.999 511.999" style="enable-background:new 0 0 511.999 511.999;" xml:space="preserve">
<path style="fill:#FFE9F7;" d="M117.284,129.501c-14.73,24.396-23.206,52.993-23.206,83.569
	c0,165.095,72.494,298.929,161.92,298.929s161.92-133.834,161.92-298.929c0-30.577-8.476-59.173-23.204-83.569"/>
<path style="fill:#F9D9EC;" d="M417.918,213.071c0-30.577-8.476-59.173-23.204-83.569H256v382.498
	C345.425,511.998,417.918,378.164,417.918,213.071z"/>
<rect x="318.272" y="231.756" style="fill:#454449;" width="62.277" height="37.366"/>
<rect x="131.441" y="231.756" style="fill:#58575D;" width="62.277" height="37.366"/>
<path style="fill:#EBAFD1;" d="M274.681,412.356h-37.366c0,43.594-17.997,43.594-31.138,43.594v37.366
	c17.192,0,36.199-4.255,49.821-19.22c13.624,14.965,32.629,19.22,49.821,19.22V455.95
	C292.678,455.95,274.681,455.95,274.681,412.356z"/>
<path style="fill:#E592BF;" d="M274.681,412.356H256v61.741c13.624,14.964,32.629,19.219,49.82,19.219V455.95
	C292.678,455.95,274.681,455.95,274.681,412.356z"/>
<path style="fill:#58575D;" d="M295.857,381.218c-6.547,19.866-24.089,41.767-39.857,42.1c-15.768-0.335-33.311-22.235-39.857-42.1
	c-3.023-10.15,4.792-18.55,17.438-18.683c14.946,0,29.893,0,44.839,0C291.065,362.668,298.881,371.067,295.857,381.218z"/>
<path style="fill:#454449;" d="M278.419,362.535c-7.473,0-14.946,0-22.42,0v60.783c15.768-0.335,33.311-22.235,39.857-42.1
	C298.881,371.067,291.065,362.668,278.419,362.535z"/>
<path style="fill:#F9D9EC;" d="M81.625,125.883c-34.394,0-62.277,27.883-62.277,62.277v37.366h37.366
	c34.394,0,62.277-27.883,62.277-62.277v-37.366C118.991,125.883,81.625,125.883,81.625,125.883z"/>
<path style="fill:#EDCCE4;" d="M492.652,188.159c0-34.394-27.883-62.277-62.277-62.277h-37.366v37.366
	c0,34.394,27.883,62.277,62.277,62.277h37.366V188.159z"/>
<path style="fill:#F8F8F9;" d="M399.235,100.972c0-16.431,5.188-35.744-5.378-49.408c-9.332-12.066-30.179-13.433-45.746-22.002
	c-13.569-7.471-24.741-24.9-41.709-28.822c-15.35-3.55-33.241,6.817-50.403,6.817S220.945-2.809,205.594,0.74
	c-16.969,3.923-28.143,21.351-41.709,28.823c-15.567,8.571-36.413,9.938-45.744,22.004c-10.566,13.664-5.378,32.976-5.378,49.407
	s-5.188,35.744,5.378,49.408c9.332,12.067,30.179,13.432,45.747,22.002c13.568,7.471,24.74,24.898,41.708,28.822
	c15.35,3.55,33.241-6.817,50.403-6.817s35.053,10.367,50.406,6.817c16.968-3.923,28.14-21.352,41.708-28.823
	c15.565-8.571,36.414-9.937,45.745-22.002C404.423,136.716,399.235,117.404,399.235,100.972z"/>
<path style="fill:#EDEDED;" d="M393.857,52.894c-9.332-12.067-30.179-13.433-45.746-22.004
	c-13.569-7.469-24.741-24.897-41.709-28.82C291.052-1.48,273.163,8.886,256,8.886v186.83c17.162,0.001,35.052,10.367,50.404,6.817
	c16.968-3.923,28.14-21.352,41.708-28.823c15.565-8.571,36.414-9.937,45.745-22.002c10.566-13.664,5.378-32.976,5.378-49.407
	S404.423,66.557,393.857,52.894z"/>
<g>
</g>
<g>
</g>
<g>
</g>
<g>
</g>
<g>
</g>
<g>
</g>
<g>
</g>
<g>
</g>
<g>
</g>
<g>
</g>
<g>
</g>
<g>
</g>
<g>
</g>
<g>
</g>
<g>
</g>
</svg>
