<?xml version="1.0" encoding="iso-8859-1"?>
<!-- Generator: Adobe Illustrator 19.0.0, SVG Export Plug-In . SVG Version: 6.00 Build 0)  -->
<svg version="1.1" id="Layer_1" xmlns="http://www.w3.org/2000/svg" xmlns:xlink="http://www.w3.org/1999/xlink" x="0px" y="0px"
	 viewBox="0 0 512 512" style="enable-background:new 0 0 512 512;" xml:space="preserve">
<path style="fill:#F8F8F9;" d="M42.846,142.164l141.385,141.384l40.395-40.394c16.733-16.734,43.862-16.734,60.594,0
	c16.731,16.731,16.733,43.862-0.001,60.593l-40.395,40.397c-41.831,41.831-62.747,96.655-62.748,151.483h214.232l40.395-40.394
	c100.394-100.396,100.394-263.167,0-363.561C336.309-8.724,173.536-8.724,73.142,91.672l-40.395,40.395"/>
<path style="fill:#88888F;" d="M224.628,91.67c-41.832-41.834-109.653-41.831-151.484,0l0,0l-20.199,20.198l151.484,151.481
	l20.198-20.196l0,0C266.457,201.32,266.458,133.501,224.628,91.67z"/>
<path style="fill:#EDEDED;" d="M436.703,91.67c-50.197-50.196-115.989-75.296-181.78-75.296l-0.001,214.231
	c10.967,0,21.932,4.185,30.298,12.55c16.731,16.731,16.733,43.862-0.001,60.593l-30.295,30.297l-0.001,161.583h141.387
	l40.395-40.394C537.099,354.835,537.099,192.066,436.703,91.67z"/>
<path style="fill:#58575D;" d="M164.033,180.826c-7.632,0-14.806-2.971-20.201-8.371c-11.131-11.133-11.133-29.252,0-40.388
	c5.4-5.397,12.572-8.368,20.201-8.368c7.629,0,14.802,2.974,20.198,8.368c11.137,11.136,11.136,29.258-0.001,40.394
	C178.842,177.852,171.667,180.826,164.033,180.826z"/>
<path style="fill:#EFC27B;" d="M32.747,132.064l0.007,0.009l-0.007-0.006c-22.31,22.307-22.31,58.478-0.001,80.788
	c22.311,22.313,35.578,65.416-20.198,121.189c-16.731,16.731-16.73,43.862,0.001,60.593c16.731,16.734,43.86,16.734,60.593,0.003
	L204.429,263.35L52.945,111.868L32.747,132.064z"/>
<g>
</g>
<g>
</g>
<g>
</g>
<g>
</g>
<g>
</g>
<g>
</g>
<g>
</g>
<g>
</g>
<g>
</g>
<g>
</g>
<g>
</g>
<g>
</g>
<g>
</g>
<g>
</g>
<g>
</g>
</svg>
