<?xml version="1.0" encoding="iso-8859-1"?>
<!-- Generator: Adobe Illustrator 19.0.0, SVG Export Plug-In . SVG Version: 6.00 Build 0)  -->
<svg version="1.1" id="Layer_1" xmlns="http://www.w3.org/2000/svg" xmlns:xlink="http://www.w3.org/1999/xlink" x="0px" y="0px"
	 viewBox="0 0 512 512" style="enable-background:new 0 0 512 512;" xml:space="preserve">
<path style="fill:#ECB45C;" d="M62.797,169.476c0,0-78.198-136.846-58.65-156.397c19.551-19.551,156.398,58.65,156.398,58.65"/>
<path style="fill:#E9A440;" d="M353.481,67.594c0,0,133.61-83.607,153.925-64.852c20.315,18.75-52.352,158.615-52.352,158.615"/>
<circle style="fill:#EFC27B;" cx="262.166" cy="276.999" r="235.002"/>
<path style="fill:#ECB45C;" d="M262.164,41.471v470.004c129.789,0,235.002-105.213,235.002-235.002
	C497.166,146.686,391.952,41.471,262.164,41.471z"/>
<path style="fill:#58575D;" d="M158.487,304.121h-0.003c-15.243,0-27.645-12.403-27.645-27.647
	c0.006-15.247,12.408-27.647,27.647-27.647c15.245,0,27.647,12.403,27.647,27.647C186.134,291.718,173.731,304.121,158.487,304.121z
	"/>
<path style="fill:#454449;" d="M365.842,304.121h-0.003c-15.243,0-27.645-12.403-27.645-27.647
	c0.006-15.247,12.408-27.647,27.647-27.647c15.245,0,27.647,12.403,27.647,27.647C393.489,291.718,381.085,304.121,365.842,304.121z
	"/>
<path style="fill:#58575D;" d="M262.164,172.796c-27.014,0-41.407-9.595-52.972-17.306c-9.341-6.228-15.511-10.341-29.97-10.341
	v-41.471c27.013,0,41.407,9.595,52.972,17.306c9.341,6.228,15.511,10.341,29.97,10.341c14.457,0,20.628-4.114,29.97-10.341
	c11.565-7.711,25.958-17.306,52.972-17.306v41.471c-14.458,0-20.628,4.114-29.97,10.341
	C303.572,163.2,289.177,172.796,262.164,172.796z"/>
<rect x="172.312" y="414.71" style="fill:#F8F8F9;" width="41.471" height="41.471"/>
<rect x="310.549" y="414.71" style="fill:#EDEDED;" width="41.471" height="41.471"/>
<path style="fill:#454449;" d="M444.78,259.697l-24.374,33.551c23.652,17.183,45.18,37.076,64.179,59.256
	c5.368-15.706,9.107-32.165,11.042-49.171C479.897,287.463,462.903,272.863,444.78,259.697z"/>
<path style="fill:#58575D;" d="M103.921,293.25l-24.375-33.551c-18.121,13.166-35.116,27.768-50.847,43.638
	c1.935,17.006,5.675,33.464,11.042,49.169C58.741,330.327,80.267,310.432,103.921,293.25z"/>
<path style="fill:#454449;" d="M292.133,120.984c-9.341,6.228-15.512,10.341-29.968,10.341v41.471
	c27.013,0,41.407-9.595,52.972-17.306c9.341-6.228,15.512-10.341,29.97-10.341v-41.471
	C318.092,103.678,303.699,113.273,292.133,120.984z"/>
<path style="fill:#58575D;" d="M379.665,345.591c0,26.678-21.704,48.383-48.383,48.383c-20.604,0-38.232-12.953-45.195-31.139
	c1.116-0.317,2.239-0.651,3.369-1.028c22.188-7.397,34.914-23.384,34.914-43.862V262.65c0-19.056,15.503-34.559,34.559-34.559
	c9.23,0,17.909,3.594,24.436,10.122l29.323-29.327c-14.36-14.359-33.452-22.266-53.759-22.266c-41.923,0-76.03,34.107-76.03,76.03
	v55.295c0,0.545,0,2.203-5.977,4.321c-5.722,2.027-12.486,2.553-14.758,2.589c-2.273-0.037-9.037-0.563-14.758-2.589
	c-5.977-2.118-5.977-3.777-5.977-4.321V262.65c0-41.923-34.107-76.03-76.03-76.03c-20.308,0-39.402,7.908-53.762,22.268
	l29.324,29.324c6.528-6.528,15.206-10.122,24.437-10.122c19.056,0,34.559,15.503,34.559,34.559v55.295
	c0,20.478,12.726,36.467,34.913,43.862c1.131,0.376,2.253,0.712,3.37,1.028c-6.963,18.186-24.591,31.139-45.195,31.139
	c-26.678,0-48.383-21.704-48.383-48.383h-41.471c0,49.545,40.308,89.854,89.854,89.854c27.765,0,52.622-12.662,69.118-32.51
	c16.496,19.848,41.353,32.51,69.118,32.51c49.545,0,89.854-40.308,89.854-89.854H379.665z"/>
<path style="fill:#454449;" d="M379.665,345.591c0,26.678-21.704,48.383-48.383,48.383c-20.604,0-38.232-12.953-45.195-31.139
	c1.116-0.317,2.239-0.651,3.369-1.028c22.188-7.397,34.914-23.384,34.914-43.862V262.65c0-19.056,15.503-34.559,34.559-34.559
	c9.23,0,17.909,3.594,24.436,10.122l29.323-29.327c-14.36-14.359-33.452-22.266-53.759-22.266c-41.923,0-76.03,34.107-76.03,76.03
	v55.295c0,0.545,0,2.203-5.977,4.321c-5.722,2.027-12.486,2.553-14.758,2.589v20.737v20.735v36.608
	c16.496,19.848,41.353,32.51,69.118,32.51c49.545,0,89.854-40.308,89.854-89.854H379.665z"/>
<g>
</g>
<g>
</g>
<g>
</g>
<g>
</g>
<g>
</g>
<g>
</g>
<g>
</g>
<g>
</g>
<g>
</g>
<g>
</g>
<g>
</g>
<g>
</g>
<g>
</g>
<g>
</g>
<g>
</g>
</svg>
