<?xml version="1.0" encoding="iso-8859-1"?>
<!-- Generator: Adobe Illustrator 19.0.0, SVG Export Plug-In . SVG Version: 6.00 Build 0)  -->
<svg version="1.1" id="Layer_1" xmlns="http://www.w3.org/2000/svg" xmlns:xlink="http://www.w3.org/1999/xlink" x="0px" y="0px"
	 viewBox="0 0 512 512" style="enable-background:new 0 0 512 512;" xml:space="preserve">
<path style="fill:#95D5A7;" d="M497.778,256c-10.229-70.69-45.43-134.692-88.922-181.019C364.841,28.654,312.889,0,256,0
	c-56.536,0-108.841,28.652-152.856,74.981C59.652,121.307,24.451,185.308,14.222,256c-10.229,70.694,8.694,134.692,52.709,181.019
	C110.423,483.346,179.007,512.003,256,512c76.995-0.003,145.579-28.655,189.069-74.981C489.085,390.693,508.006,326.692,497.778,256
	z"/>
<path style="fill:#80CB93;" d="M497.778,256c-10.229-70.69-45.43-134.692-88.922-181.019C364.841,28.654,312.889,0,256,0v512
	c76.995-0.003,145.579-28.655,189.069-74.981C489.085,390.693,508.006,326.692,497.778,256z"/>
<g>
	<path style="fill:#477E48;" d="M277.333,412.444h-42.667c0-11.765-9.57-21.333-21.333-21.333h-99.556c-35.29,0-64-28.709-64-64
		s28.71-64,64-64v42.667c-11.763,0-21.333,9.57-21.333,21.333c0,11.763,9.57,21.333,21.333,21.333h99.556
		c16.377,0,31.336,6.184,42.667,16.336c11.331-10.153,26.29-16.336,42.667-16.336h99.556c11.763,0,21.333-9.57,21.333-21.333
		c0-11.763-9.57-21.333-21.333-21.333v-42.667c35.29,0,64,28.709,64,64s-28.71,64-64,64h-99.556
		C286.903,391.111,277.333,400.68,277.333,412.444z"/>
	<path style="fill:#477E48;" d="M248.889,312.892h-42.667c0-10.874-3.439-21.197-9.943-29.855l34.113-25.628
		C242.493,273.516,248.889,292.702,248.889,312.892z"/>
</g>
<path style="fill:#417242;" d="M305.778,312.892h-42.667c0-20.19,6.396-39.376,18.496-55.484l34.113,25.628
	C309.215,291.695,305.778,302.017,305.778,312.892z"/>
<path style="fill:#58575D;" d="M177.778,220.444h-0.003c-15.683,0-28.442-12.76-28.442-28.444
	c0.006-15.687,12.766-28.444,28.444-28.444c15.684,0,28.444,12.76,28.444,28.444S193.462,220.444,177.778,220.444z"/>
<path style="fill:#454449;" d="M334.222,220.444h-0.003c-15.683,0-28.442-12.76-28.442-28.444
	c0.006-15.687,12.766-28.444,28.444-28.444c15.684,0,28.444,12.76,28.444,28.444S349.906,220.444,334.222,220.444z"/>
<path style="fill:#417242;" d="M398.222,263.111v42.667c11.763,0,21.333,9.57,21.333,21.333c0,11.763-9.57,21.333-21.333,21.333
	h-99.556c-16.377,0-31.336,6.184-42.667,16.336v47.664h21.333c0-11.765,9.57-21.333,21.333-21.333h99.556c35.29,0,64-28.709,64-64
	S433.512,263.111,398.222,263.111z"/>
<g>
</g>
<g>
</g>
<g>
</g>
<g>
</g>
<g>
</g>
<g>
</g>
<g>
</g>
<g>
</g>
<g>
</g>
<g>
</g>
<g>
</g>
<g>
</g>
<g>
</g>
<g>
</g>
<g>
</g>
</svg>
